# AST/ASF file generated using VICON BodyLanguage
# -----------------------------------------------
:version 1.10
:name VICON
:units
  mass 1.0
  length 0.45
  angle deg
:documentation
   .ast/.asf automatically generated from VICON data using
   VICON BodyBuilder and BodyLanguage model FoxedUp or BRILLIANT.MOD
:root
   order TX TY TZ RX RY RZ
   axis XYZ
   position 0 0 0  
   orientation 0 0 0 
:bonedata
  begin
     id 1 
     name lhipjoint
     direction 0.693937 -0.600361 0.397515 
     length 2.37164 
     axis 0 0 0  XYZ
  end
  begin
     id 2 
     name lfemur
     direction 0.34202 -0.939693 0  
     length 6.18497  
     axis 0 0 20  XYZ
    dof rx ry rz
    limits (-160.0 20.0)
           (-70.0 70.0)
           (-60.0 70.0)
  end
  begin
     id 3 
     name ltibia
     direction 0.34202 -0.939693 0   
     length 6.91601   
     axis 0 0 20   XYZ
    dof rx
    limits (-10.0 170.0)
  end
  begin
     id 4 
     name lfoot
     direction 0.0978718 -0.2689 0.958182   
     length 1.81453   
     axis -90 7.62852e-016 20   XYZ
    dof rx rz
    limits (-45.0 90.0)
           (-70.0 20.0)
  end
  begin
     id 5 
     name ltoes
     direction 1.53569e-011 -4.21951e-011 1   
     length 0.912052   
     axis -90 7.62852e-016 20   XYZ
    dof rx
    limits (-90.0 20.0)
  end
  begin
     id 6 
     name rhipjoint
     direction -0.643996 -0.637876 0.422354   
     length 2.23216  
     axis 0 0 0  XYZ 
  end
  begin
     id 7 
     name rfemur
     direction -0.34202 -0.939693 0   
     length 6.15404   
     axis 0 0 -20   XYZ
    dof rx ry rz
    limits (-160.0 20.0)
           (-70.0 70.0)
           (-70.0 60.0)
  end
  begin
     id 8 
     name rtibia
     direction -0.34202 -0.939693 0   
     length 6.86744   
     axis 0 0 -20   XYZ
    dof rx
    limits (-10.0 170.0)
 end
 begin
     id 9 
     name rfoot
     direction -0.118701 -0.326127 0.937844   
     length 1.9243  
     axis -90 -7.62852e-016 -20   XYZ
    dof rx rz
    limits (-45.0 90.0)
           (-20.0 70.0)
  end
  begin
     id 10 
     name rtoes
     direction -1.5356e-011 -4.2181e-011 1   
     length 0.958865   
     axis -90 -7.62852e-016 -20   XYZ
    dof rx
    limits (-90.0 20.0)
  end
  begin
     id 11 
     name lowerback
     direction 0.0310826 0.968686 -0.246334   
     length 2.00021   
     axis 0 0 0   XYZ
    dof rx ry rz
    limits (-20.0 45.0)
           (-30.0 30.0)
           (-30.0 30.0)
  end
  begin
     id 12 
     name upperback
     direction -0.0152834 0.999474 -0.0286152   
     length 2.03728   
     axis 0 0 0   XYZ
    dof rx ry rz
    limits (-20.0 45.0)
           (-30.0 30.0)
           (-30.0 30.0)
  end
  begin
     id 13 
     name thorax
     direction -0.0323701 0.996236 0.0804149   
     length 2.16   
     axis 0 0 0   XYZ
    dof rx ry rz
    limits (-20.0 45.0)
           (-30.0 30.0)
           (-30.0 30.0)
  end
  begin
     id 14 
     name lowerneck
     direction 0.0307935 0.982251 0.185027   
     length 1.43558   
     axis 0 0 0   XYZ
    dof rx ry rz
    limits (-20.0 45.0)
           (-30.0 30.0)
           (-30.0 30.0)
  end
  begin
     id 15 
     name upperneck
     direction -0.0927153 0.994775 0.0427454   
     length 1.44603   
     axis 0 0 0   XYZ
    dof rx ry rz
    limits (-20.0 45.0)
           (-30.0 30.0)
           (-30.0 30.0)
  end
  begin
     id 16
     name head
     direction -0.0341265 0.999406 -0.00472033  
     length 1.45931  
     axis 0 0 0   XYZ
    dof rx ry rz
    limits (-20.0 45.0)
           (-30.0 30.0)
           (-30.0 30.0)
  end
  begin
     id 17 
     name lclavicle
     direction 0.820755 0.555306 -0.134151  
     length 2.66075  
     axis 0 0 0   XYZ
    dof ry rz
    limits (-20.0 10.0)
           (0.0 20.0)
  end
  begin
     id 18 
     name lhumerus
     direction 1 -4.48971e-011 5.24853e-027   
     length 5.0546   
     axis -180 -30 -90   XYZ
    dof rx ry rz
    limits (-60.0 90.0)
           (-90.0 90.0)
           (-90.0 90.0)
  end
  begin
     id 19
     name lradius
     direction 1 -4.48971e-011 2.76575e-028   
     length 3.39013   
     axis -180 -30 -90   XYZ
    dof rx
    limits (-10.0 170.0)
  end
  begin
     id 20
     name lwrist
     direction 1 -4.48939e-011 -2.27826e-027   
     length 1.69507   
     axis 2.17013e-015 90 90   XYZ
    dof ry
    limits (-180.0 0.0)
 end
  begin
     id 21 
     name lhand
     direction 1 -4.49009e-011 -4.55652e-027   
     length 0.572425   
     axis 2.90745e-015 90 90   XYZ
    dof rx rz
    limits (-90.0 90.0)
           (-45.0 45.0)
  end
  begin
     id 22 
     name lfingers
     direction 1 -4.48955e-011 -9.11303e-027   
     length 0.461504   
     axis 5.81489e-015 90 90   XYZ
    dof rx
    limits (0.0 90.0)
  end
  begin
     id 23
     name lthumb
     direction 0.707107 -6.34929e-011 0.707107   
     length 0.66263   
     axis -90 45 2.85299e-015   XYZ
    dof rx rz
    limits (-45.0 45.0)
           (-45.0 45.0)
  end
  begin
     id 24 
     name rclavicle
     direction -0.754477 0.632921 -0.173712   
     length 2.73081  
     axis 0 0 0   XYZ 
    dof ry rz
    limits (-10.0 20.0)
           (-20.0 0.0)
  end
  begin
     id 25 
     name rhumerus
     direction -1 -4.48969e-011 5.1496e-027  
     length 5.0701   
     axis -180 30 90   XYZ
    dof rx ry rz
    limits (-90.0 60.0)
           (-90.0 90.0)
           (-90.0 90.0)
  end
  begin
     id 26 
     name rradius
     direction -1 -4.48967e-011 -7.15624e-028   
     length 3.14957   
     axis -180 30 90   XYZ
    dof rx
    limits (-10.0 170.0)
  end
  begin
     id 27 
     name rwrist
     direction -1 -4.48938e-011 -2.27826e-027   
     length 1.57479   
     axis 2.17013e-015 -90 -90   XYZ
    dof ry
    limits (-180.0 0.0)
  end
  begin
     id 28
     name rhand
     direction -1 -4.49008e-011 -4.55652e-027   
     length 0.718191   
     axis 2.90745e-015 -90 -90   XYZ
    dof rx rz
    limits (-90.0 90.0)
           (-45.0 45.0)
  end
  begin
     id 29
     name rfingers
     direction -1 -4.48953e-011 -9.11303e-027   
     length 0.579024   
     axis 5.81489e-015 -90 -90   XYZ
    dof rx
    limits (0.0 90.0)
  end
  begin
     id 30
     name rthumb
     direction -0.707107 -6.34937e-011 0.707107   
     length 0.831366   
     axis -90 -45 -2.85299e-015   XYZ
    dof rx rz
    limits (-45.0 45.0)
           (-45.0 45.0)
  end
:hierarchy
  begin
    root lhipjoint rhipjoint lowerback
    lhipjoint lfemur
    lfemur ltibia
    ltibia lfoot
    lfoot ltoes
    rhipjoint rfemur
    rfemur rtibia
    rtibia rfoot
    rfoot rtoes
    lowerback upperback
    upperback thorax
    thorax lowerneck lclavicle rclavicle
    lowerneck upperneck
    upperneck head
    lclavicle lhumerus
    lhumerus lradius
    lradius lwrist
    lwrist lhand lthumb
    lhand lfingers
    rclavicle rhumerus
    rhumerus rradius
    rradius rwrist
    rwrist rhand rthumb
    rhand rfingers
  end

#!OML:ASF H:\Male1\Project 1\Capture day 1\Session 1\Male1.ASF
:FULLY-SPECIFIED
:DEGREES
237
root -10.7918 15.3239 -0.562338 -190.099 -91.7737 184.419
lowerback 4.5391 0.273216 -1.13959
upperback 4.7896 0.221583 -0.11679
thorax 2.37622 0.0298388 0.511027
lowerneck -12.6935 2.56944 5.61426
upperneck 15.4307 2.37818 -0.508649
head 6.88918 1.39417 -0.858466
rclavicle 3.36692e-015 3.08116e-015
rhumerus -35.0264 -1.4428 -85.4667
rradius 29.1928
rwrist -15.6271
rhand -17.366 -2.09192
rfingers 7.12502
rthumb 8.88214 -31.885
lclavicle 3.36692e-015 3.08116e-015
lhumerus -26.747 -4.06875 87.9606
lradius 29.33
lwrist -2.80177
lhand -19.5006 13.5511
lfingers 7.12502
lthumb 6.8219 43.4212
rfemur -6.69418 11.4917 22.9447
rtibia 25.3671
rfoot -24.1887 -28.966
rtoes -2.17423
lfemur 1.11749 -2.99212 -19.4137
ltibia 52.3339
lfoot -9.92139 6.94302
ltoes -17.2401
238
root -10.632 15.3034 -0.519341 -174.2 -91.8003 168.552
lowerback 4.25122 0.197773 -1.06065
upperback 4.87294 0.124346 0.0180976
thorax 2.62499 -0.0207565 0.608037
lowerneck -12.7917 2.61336 5.62763
upperneck 15.3733 2.43952 -0.552439
head 6.8902 1.4206 -0.86774
rclavicle -4.22417e-015 1.49089e-015
rhumerus -35.0759 -1.94442 -85.241
rradius 29.1929
rwrist -15.5256
rhand -17.2905 -1.96149
rfingers 7.12502
rthumb 8.95507 -31.7514
lclavicle -4.22417e-015 1.49089e-015
lhumerus -26.2005 -4.7806 88.3029
lradius 30.1586
lwrist -2.3466
lhand -21.4217 12.584
lfingers 7.12502
lthumb 4.96715 42.5058
rfemur -7.62832 11.6124 23.1446
rtibia 25.6834
rfoot -23.8948 -29.0372
rtoes -1.82839
lfemur 2.96177 -3.92661 -19.1324
ltibia 49.7401
lfoot -9.36389 6.49886
ltoes -14.1921
239
root -10.467 15.2839 -0.483087 -150.605 -91.8373 144.97
lowerback 4.40292 0.245007 -0.834326
upperback 4.72144 0.191992 0.183524
thorax 2.38198 0.0207181 0.649615
lowerneck -12.6419 2.60974 5.5329
upperneck 15.3314 2.43146 -0.38012
head 6.84725 1.42501 -0.799252
rclavicle -1.81391e-015 -3.57812e-015
rhumerus -35.5359 -2.32922 -85.1226
rradius 29.3838
rwrist -15.5028
rhand -17.2286 -1.76006
rfingers 7.12502
rthumb 9.01479 -31.5474
lclavicle -1.81391e-015 -3.57812e-015
lhumerus -25.9746 -5.73776 88.6519
lradius 30.9768
lwrist -1.62093
lhand -22.1188 12.4958
lfingers 7.12502
lthumb 4.29404 42.4322
rfemur -8.72729 12.2904 23.647
rtibia 26.2025
rfoot -23.6894 -29.4143
rtoes -1.15188
lfemur 4.82894 -4.74714 -18.6641
ltibia 46.4627
lfoot -8.98612 6.54479
ltoes -13.5002
240
root -10.2942 15.2627 -0.428309 -162.162 -91.8426 156.85
lowerback 4.32323 0.202838 -1.39961
upperback 4.51813 0.133078 -0.00607916
thorax 2.21679 -0.0162997 0.773036
lowerneck -12.4847 2.58954 5.3885
upperneck 15.2438 2.38755 -0.0715499
head 6.78523 1.42013 -0.682587
rclavicle -5.81445e-015 -7.95139e-016
rhumerus -35.9417 -2.55889 -85.0832
rradius 29.7191
rwrist -15.6814
rhand -17.2505 -1.62526
rfingers 7.12502
rthumb 8.99364 -31.4136
lclavicle -5.81445e-015 -7.95139e-016
lhumerus -25.7016 -6.72209 89.0006
lradius 31.7436
lwrist -0.987697
lhand -21.8975 12.9623
lfingers 7.12502
lthumb 4.50777 42.8943
rfemur -10.2227 12.255 22.7414
rtibia 26.862
rfoot -23.361 -29.3951
rtoes -0.661701
lfemur 6.41114 -6.11658 -19.6664
ltibia 42.5973
lfoot -10.1389 7.12541
ltoes -18.1017
241
root -10.1203 15.2298 -0.374919 -173.272 -91.7944 168.169
lowerback 4.19477 0.206009 -2.10618
upperback 4.49192 0.126385 -0.171788
thorax 2.26194 -0.0363409 0.998888
lowerneck -12.4469 2.57665 5.29163
upperneck 15.0827 2.34185 0.227708
head 6.72124 1.41582 -0.575877
rclavicle -2.36057e-015 1.13307e-014
rhumerus -36.0219 -2.75886 -85.0576
rradius 29.9604
rwrist -15.8346
rhand -17.1792 -1.69272
rfingers 7.12502
rthumb 9.06238 -31.478
lclavicle -2.36057e-015 1.13307e-014
lhumerus -25.2481 -7.70432 89.3279
lradius 32.5246
lwrist -0.323544
lhand -21.7718 13.3773
lfingers 7.12502
lthumb 4.62916 43.3067
rfemur -11.6456 12.4944 21.8612
rtibia 27.5931
rfoot -23.301 -29.3692
rtoes 0.0933809
lfemur 8.13064 -7.47838 -20.7409
ltibia 38.4349
lfoot -11.7955 7.53465
ltoes -18.983
242
root -9.93908 15.2144 -0.319188 -182.793 -91.7898 177.909
lowerback 4.04373 0.202292 -2.75998
upperback 4.55526 0.112355 -0.341706
thorax 2.41364 -0.0625183 1.19062
lowerneck -12.43 2.57535 5.31889
upperneck 14.7935 2.3174 0.377573
head 6.62374 1.41495 -0.535714
rclavicle 4.96962e-016 3.97569e-015
rhumerus -35.86 -2.84582 -85.1314
rradius 30.1359
rwrist -15.9334
rhand -16.9873 -1.83901
rfingers 7.12502
rthumb 9.24759 -31.6162
lclavicle 4.96962e-016 3.97569e-015
lhumerus -24.6659 -8.81905 89.5874
lradius 33.356
lwrist 0.462106
lhand -21.654 13.9058
lfingers 7.12502
lthumb 4.7429 43.8327
rfemur -13.0729 12.7739 21.0092
rtibia 28.3152
rfoot -23.3731 -29.2619
rtoes 1.42975
lfemur 9.95221 -8.41238 -21.7483
ltibia 34.2288
lfoot -13.7031 8.56484
ltoes -21.213
243
root -9.74688 15.1953 -0.263087 -187.841 -91.7241 183.101
lowerback 4.22129 0.215072 -3.26299
upperback 4.52145 0.111035 -0.497975
thorax 2.28074 -0.0736646 1.31141
lowerneck -12.2474 2.59977 5.37163
upperneck 14.5201 2.33735 0.496886
head 6.50486 1.43319 -0.507392
rclavicle -3.23025e-015 2.78299e-015
rhumerus -35.9525 -3.03765 -85.2199
rradius 30.5268
rwrist -15.8122
rhand -16.8819 -1.843
rfingers 7.12502
rthumb 9.34932 -31.6157
lclavicle -3.23025e-015 2.78299e-015
lhumerus -24.2883 -10.009 89.8276
lradius 34.1067
lwrist 1.3517
lhand -22.0693 13.9727
lfingers 7.12502
lthumb 4.34186 43.9082
rfemur -14.4925 13.1812 20.3312
rtibia 29.107
rfoot -23.6 -29.2616
rtoes 2.5957
lfemur 11.9038 -9.14071 -22.5395
ltibia 29.9271
lfoot -15.5513 9.63658
ltoes -22.5816
